# xmcd
#
# Track frame offsets: 
#        150
#        19600
#        34261
#        48669
#        64033
#        77884
#        92212
#        108740
#        127585
#        142386
#        158815
#        173199
#        190910
#        209433
#        227046
#        241746
#        257372
#        273678
#
# Disc length: 3911 seconds
#
# Revision: 4
# Processed by: cddbd v1.5.2PL0 Copyright (c) Steve Scherf et al.
# Submitted via: ExactAudioCopy v1.0b3
#
DISCID=000f4512
DTITLE=Various Artist - Now That's What I Call Country, Vol. 8
DYEAR=2015
DGENRE=Country
TTITLE0=Luke Bryan - Roller Coaster
TTITLE1=Jason Aldean - Just Gettin' Started
TTITLE2=Sam Hunt - Leave the Night On
TTITLE3=Darius Rucker - Homegrown Honey
TTITLE4=Florida Georgia Line - Sun Daze
TTITLE5=Jake Owen - Beachin'
TTITLE6=Brantley Gilbert - Bottoms Up
TTITLE7=Eric Church - Give Me Back My Hometown
TTITLE8=Lady Antebellum - Bartender
TTITLE9=A Thousand Horses - Smoke
TTITLE10=Cole Swindell - Ain't Worth the Whiskey
TTITLE11=Keith Urban - Somewhere in My Car
TTITLE12=Miranda Lambert - Automatic
TTITLE13=Brad Paisley - Perfect Storm
TTITLE14=Tyler Farr - A Guy Walks into a Bar
TTITLE15=Lee Brice - Drinking Class
TTITLE16=Chris Young - Lonely Eyes
TTITLE17=Eric Paslay - She Don't Love You
EXTD=
EXTT0=
EXTT1=
EXTT2=
EXTT3=
EXTT4=
EXTT5=
EXTT6=
EXTT7=
EXTT8=
EXTT9=
EXTT10=
EXTT11=
EXTT12=
EXTT13=
EXTT14=
EXTT15=
EXTT16=
EXTT17=
PLAYORDER=
